<svg xmlns="http://www.w3.org/2000/svg" viewBox="0 0 258.51 258.41"><title>Asset 1</title><g id="Layer_2" data-name="Layer 2"><g id="Layer_1-2" data-name="Layer 1"><g id="Layer_2-2" data-name="Layer 2"><g id="Layer_1-2-2" data-name="Layer 1-2"><path d="M131.11.65h0a2.91,2.91,0,0,1,4.11.44,3.08,3.08,0,0,1,.44.77h0a3,3,0,0,0,3.16,1.83h0a2.91,2.91,0,0,1,3.31,2.46,3.1,3.1,0,0,1,0,.86h0A2.94,2.94,0,0,0,144,10.17h0A2.91,2.91,0,0,1,145.61,14a3.2,3.2,0,0,1-.44.76h0a2.94,2.94,0,0,0,0,3.64h0a2.92,2.92,0,0,1-.46,4.11,3.14,3.14,0,0,1-.75.44h0A2.93,2.93,0,0,0,142.13,26h0a2.94,2.94,0,0,1-3.32,3.33h0a2.93,2.93,0,0,0-3.15,1.86h0a2.91,2.91,0,0,1-3.78,1.65,2.86,2.86,0,0,1-.76-.43h0a2.92,2.92,0,0,0-3.64,0h0a2.93,2.93,0,0,1-4.11-.47,2.84,2.84,0,0,1-.44-.75h0a2.9,2.9,0,0,0-3.15-1.82h0a2.93,2.93,0,0,1-3.34-2.45,2.84,2.84,0,0,1,0-.92h0a2.9,2.9,0,0,0-1.78-3.11h0a2.94,2.94,0,0,1-1.22-4.55h0a2.92,2.92,0,0,0,0-3.64h0a2.93,2.93,0,0,1,.46-4.11,2.86,2.86,0,0,1,.76-.43h0A2.94,2.94,0,0,0,116.44,7h0a2.93,2.93,0,0,1,2.46-3.33,2.82,2.82,0,0,1,.87,0h0a3,3,0,0,0,3.15-1.83h0A2.94,2.94,0,0,1,126.73.21a3.08,3.08,0,0,1,.74.44h0A2.94,2.94,0,0,0,131.11.65Z"/><path d="M131.11,57h0a2.92,2.92,0,0,1,4.11.43,3.08,3.08,0,0,1,.44.77h0a3,3,0,0,0,3.15,1.8h0a2.92,2.92,0,0,1,3.32,2.45,3.17,3.17,0,0,1,0,.87h0A2.94,2.94,0,0,0,144,66.49h0a2.91,2.91,0,0,1,1.65,3.78,3.2,3.2,0,0,1-.44.76h0a2.94,2.94,0,0,0,0,3.64h0a2.92,2.92,0,0,1-.46,4.11,3.14,3.14,0,0,1-.75.44h0a2.93,2.93,0,0,0-1.83,3.15h0a2.94,2.94,0,0,1-3.32,3.33h0a2.92,2.92,0,0,0-3.15,1.85h0a2.91,2.91,0,0,1-3.78,1.65,2.86,2.86,0,0,1-.76-.43h0a2.92,2.92,0,0,0-3.64,0h0a2.93,2.93,0,0,1-4.11-.47,2.84,2.84,0,0,1-.44-.75h0a2.9,2.9,0,0,0-3.15-1.82h0a2.94,2.94,0,0,1-3.33-2.47,3.1,3.1,0,0,1,0-.86h0a2.9,2.9,0,0,0-1.79-3.15h0a2.94,2.94,0,0,1-1.22-4.55h0a2.92,2.92,0,0,0,0-3.64h0A2.93,2.93,0,0,1,113.9,67a2.86,2.86,0,0,1,.76-.43h0a2.94,2.94,0,0,0,1.82-3.16h0A2.93,2.93,0,0,1,118.91,60a3.1,3.1,0,0,1,.86,0h0a3,3,0,0,0,3.15-1.83h0a2.92,2.92,0,0,1,3.82-1.6,2.55,2.55,0,0,1,.73.43h0A2.94,2.94,0,0,0,131.11,57Z"/><path d="M131.11,113.35h0a2.92,2.92,0,0,1,4.11.45,2.71,2.71,0,0,1,.43.76h0a3,3,0,0,0,3.16,1.83h0a2.92,2.92,0,0,1,3.32,2.45,3.17,3.17,0,0,1,0,.87h0a2.94,2.94,0,0,0,1.83,3.16h0a2.91,2.91,0,0,1,1.65,3.78,3.2,3.2,0,0,1-.44.76h0a2.94,2.94,0,0,0,0,3.64h0a2.92,2.92,0,0,1-.46,4.11,3.14,3.14,0,0,1-.75.44h0a2.93,2.93,0,0,0-1.83,3.15h0a2.94,2.94,0,0,1-3.32,3.33h0a2.92,2.92,0,0,0-3.16,1.82h0a2.91,2.91,0,0,1-3.78,1.65,2.86,2.86,0,0,1-.76-.43h0a2.92,2.92,0,0,0-3.64,0h0a2.93,2.93,0,0,1-4.11-.47,2.84,2.84,0,0,1-.44-.75h0a2.9,2.9,0,0,0-3.15-1.82h0a2.94,2.94,0,0,1-3.33-2.47,3.1,3.1,0,0,1,0-.86h0a2.91,2.91,0,0,0-1.82-3.15h0a2.94,2.94,0,0,1-1.22-4.55h0a2.92,2.92,0,0,0,0-3.64h0a2.93,2.93,0,0,1,.46-4.11,2.86,2.86,0,0,1,.76-.43h0a2.94,2.94,0,0,0,1.82-3.16h0a2.93,2.93,0,0,1,2.46-3.33,2.82,2.82,0,0,1,.87,0h0a3,3,0,0,0,3.15-1.83h0a2.94,2.94,0,0,1,3.81-1.65,3.08,3.08,0,0,1,.74.44h0A2.94,2.94,0,0,0,131.11,113.35Z"/><path d="M131.11,169.7h0a2.91,2.91,0,0,1,4.11.44,3.08,3.08,0,0,1,.44.77h0a3,3,0,0,0,3.16,1.83h0a2.92,2.92,0,0,1,3.32,2.45,3.17,3.17,0,0,1,0,.87h0a2.94,2.94,0,0,0,1.83,3.16h0a2.91,2.91,0,0,1,1.65,3.78,3.2,3.2,0,0,1-.44.76h0a2.94,2.94,0,0,0,0,3.64h0a2.92,2.92,0,0,1-.46,4.11,3.14,3.14,0,0,1-.75.44h0a2.93,2.93,0,0,0-1.83,3.15h0a2.94,2.94,0,0,1-3.32,3.33h0a2.92,2.92,0,0,0-3.16,1.82h0a2.91,2.91,0,0,1-3.78,1.65,2.86,2.86,0,0,1-.76-.43h0a2.92,2.92,0,0,0-3.64,0h0a2.93,2.93,0,0,1-4.11-.47,2.84,2.84,0,0,1-.44-.75h0a2.9,2.9,0,0,0-3.15-1.82h0a2.94,2.94,0,0,1-3.33-2.47,3.1,3.1,0,0,1,0-.86h0a2.91,2.91,0,0,0-1.82-3.15h0a2.94,2.94,0,0,1-1.22-4.55h0a2.92,2.92,0,0,0,0-3.64h0a2.93,2.93,0,0,1,.46-4.11,2.86,2.86,0,0,1,.76-.43h0a2.94,2.94,0,0,0,1.82-3.16h0a2.93,2.93,0,0,1,2.46-3.33,2.82,2.82,0,0,1,.87,0h0a3,3,0,0,0,3.15-1.83h0a2.94,2.94,0,0,1,3.81-1.65,3.08,3.08,0,0,1,.74.44h0A2.93,2.93,0,0,0,131.11,169.7Z"/><path d="M131.11,226h0a2.92,2.92,0,0,1,4.11.45,2.71,2.71,0,0,1,.43.76h0a3,3,0,0,0,3.16,1.83h0a2.92,2.92,0,0,1,3.32,2.45,3.17,3.17,0,0,1,0,.87h0a2.94,2.94,0,0,0,1.83,3.16h0a2.91,2.91,0,0,1,1.65,3.78,3.2,3.2,0,0,1-.44.76h0a2.94,2.94,0,0,0,0,3.64h0a2.92,2.92,0,0,1-.46,4.11,3.14,3.14,0,0,1-.75.44h0a2.93,2.93,0,0,0-1.83,3.15h0a2.94,2.94,0,0,1-3.32,3.33h0a2.92,2.92,0,0,0-3.16,1.82h0a2.91,2.91,0,0,1-3.78,1.65,2.86,2.86,0,0,1-.76-.43h0a2.92,2.92,0,0,0-3.64,0h0a2.93,2.93,0,0,1-4.11-.47,2.84,2.84,0,0,1-.44-.75h0a2.9,2.9,0,0,0-3.15-1.82h0a2.94,2.94,0,0,1-3.33-2.47,3.1,3.1,0,0,1,0-.86h0a2.91,2.91,0,0,0-1.82-3.15h0a2.94,2.94,0,0,1-1.22-4.55h0a2.92,2.92,0,0,0,0-3.64h0a2.93,2.93,0,0,1,.46-4.11,2.86,2.86,0,0,1,.76-.43h0a2.94,2.94,0,0,0,1.82-3.16h0A2.93,2.93,0,0,1,118.9,229a2.82,2.82,0,0,1,.87,0h0a2.94,2.94,0,0,0,3.15-1.82h0a2.94,2.94,0,0,1,3.81-1.65,3.08,3.08,0,0,1,.74.44h0A2.93,2.93,0,0,0,131.11,226Z"/><path d="M.66,127.41h0a2.93,2.93,0,0,1,.46-4.11,2.86,2.86,0,0,1,.76-.43h0a2.94,2.94,0,0,0,1.82-3.16h0a2.93,2.93,0,0,1,2.46-3.33,2.82,2.82,0,0,1,.87,0H7a3,3,0,0,0,3.15-1.83h0A2.94,2.94,0,0,1,14,112.91a3.08,3.08,0,0,1,.74.44h0a2.94,2.94,0,0,0,3.64,0h0a2.92,2.92,0,0,1,4.11.45,2.71,2.71,0,0,1,.43.76h0a3,3,0,0,0,3.16,1.83h0a2.92,2.92,0,0,1,3.32,2.45,3.17,3.17,0,0,1,0,.87h0a2.94,2.94,0,0,0,1.83,3.16h0a2.91,2.91,0,0,1,1.65,3.78,3.2,3.2,0,0,1-.44.76h0a2.94,2.94,0,0,0,0,3.64h0a2.92,2.92,0,0,1-.46,4.11,3.14,3.14,0,0,1-.75.44h0a2.93,2.93,0,0,0-1.83,3.15h0a2.94,2.94,0,0,1-3.32,3.33h0a2.92,2.92,0,0,0-3.16,1.82h0a2.91,2.91,0,0,1-3.78,1.65,2.86,2.86,0,0,1-.76-.43h0a2.92,2.92,0,0,0-3.64,0h0a2.93,2.93,0,0,1-4.11-.47,2.84,2.84,0,0,1-.44-.75h0A2.9,2.9,0,0,0,7,142.08H7a2.94,2.94,0,0,1-3.33-2.47,3.1,3.1,0,0,1,0-.86h0a2.91,2.91,0,0,0-1.82-3.15h0a3,3,0,0,1-1.69-3.79,3.06,3.06,0,0,1,.47-.8h0A2.91,2.91,0,0,0,.66,127.41Z"/><path d="M226.1,127.41h0a2.93,2.93,0,0,1,.46-4.11,2.86,2.86,0,0,1,.76-.43h0a2.94,2.94,0,0,0,1.82-3.16h0a2.93,2.93,0,0,1,2.46-3.33,2.82,2.82,0,0,1,.87,0h0a2.92,2.92,0,0,0,3.15-1.83h0a2.94,2.94,0,0,1,3.81-1.65,3.08,3.08,0,0,1,.74.44h0a2.94,2.94,0,0,0,3.64,0h0a2.92,2.92,0,0,1,4.11.45,2.71,2.71,0,0,1,.43.76h0a3,3,0,0,0,3.16,1.83h0a2.92,2.92,0,0,1,3.32,2.45,3.17,3.17,0,0,1,0,.87h0a2.94,2.94,0,0,0,1.83,3.16h0a2.91,2.91,0,0,1,1.65,3.78,3.2,3.2,0,0,1-.44.76h0a2.94,2.94,0,0,0,0,3.64h0a2.92,2.92,0,0,1-.46,4.11,3.14,3.14,0,0,1-.75.44h0a2.93,2.93,0,0,0-1.83,3.15h0a2.94,2.94,0,0,1-3.32,3.33h0a2.92,2.92,0,0,0-3.16,1.82h0a2.91,2.91,0,0,1-3.78,1.65,2.86,2.86,0,0,1-.76-.43h0a2.92,2.92,0,0,0-3.64,0h0a2.93,2.93,0,0,1-4.11-.47,2.84,2.84,0,0,1-.44-.75h0a2.9,2.9,0,0,0-3.15-1.82h0a2.94,2.94,0,0,1-3.33-2.47,3.1,3.1,0,0,1,0-.86h0a2.91,2.91,0,0,0-1.82-3.15h0a2.94,2.94,0,0,1-1.22-4.55h0A2.92,2.92,0,0,0,226.1,127.41Z"/><path d="M66.59,17h0a2.91,2.91,0,0,1,3.78-1.66,2.74,2.74,0,0,1,.76.44h0a2.94,2.94,0,0,0,3.64,0h0a2.93,2.93,0,0,1,4.12.47,2.66,2.66,0,0,1,.43.75h0a2.93,2.93,0,0,0,3.15,1.82h0a2.93,2.93,0,0,1,3.33,2.46,3.17,3.17,0,0,1,0,.87h0a2.92,2.92,0,0,0,1.86,3.15h0a2.94,2.94,0,0,1,1.64,3.82,2.82,2.82,0,0,1-.42.73h0a2.92,2.92,0,0,0,0,3.64h0a2.94,2.94,0,0,1-.54,4.12,3.07,3.07,0,0,1-.68.39h0a2.91,2.91,0,0,0-1.82,3.15h0a2.93,2.93,0,0,1-2.46,3.33,3.17,3.17,0,0,1-.87,0h0a2.91,2.91,0,0,0-3.15,1.82h0A2.93,2.93,0,0,1,75.56,48a3.11,3.11,0,0,1-.75-.43h0a2.92,2.92,0,0,0-3.64,0h0a2.92,2.92,0,0,1-4.1-.47,3.14,3.14,0,0,1-.44-.75h0a2.92,2.92,0,0,0-3.16-1.82h0A2.94,2.94,0,0,1,60.14,42a3.1,3.1,0,0,1,0-.86h0A2.88,2.88,0,0,0,58.28,38h0a2.94,2.94,0,0,1-1.64-3.82,3.09,3.09,0,0,1,.42-.73h0a2.92,2.92,0,0,0,0-3.64h0a3,3,0,0,1,.49-4.13,2.66,2.66,0,0,1,.73-.42h0a2.91,2.91,0,0,0,1.82-3.15h0a2.92,2.92,0,0,1,2.47-3.33,2.48,2.48,0,0,1,.86,0h0A2.94,2.94,0,0,0,66.59,17Z"/><path d="M179.29,212.21h0a2.93,2.93,0,0,1,3.79-1.65,2.84,2.84,0,0,1,.75.44h0a2.94,2.94,0,0,0,3.64,0h0a2.93,2.93,0,0,1,4.12.46,2.81,2.81,0,0,1,.43.75h0a2.92,2.92,0,0,0,3.15,1.83h0a2.91,2.91,0,0,1,3.33,2.44,2.6,2.6,0,0,1,0,.88h0a2.94,2.94,0,0,0,1.82,3.16h0A2.92,2.92,0,0,1,202,224.3a3.2,3.2,0,0,1-.44.76h0a2.92,2.92,0,0,0,0,3.64h0a2.92,2.92,0,0,1-.47,4.11,3,3,0,0,1-.75.44h0a2.92,2.92,0,0,0-1.82,3.15h0a2.93,2.93,0,0,1-2.46,3.33,3.17,3.17,0,0,1-.87,0h0a2.91,2.91,0,0,0-3.15,1.82h0a2.93,2.93,0,0,1-3.8,1.65,3.11,3.11,0,0,1-.75-.43h0a2.92,2.92,0,0,0-3.64,0h0a2.92,2.92,0,0,1-4.1-.47,3.14,3.14,0,0,1-.44-.75h0a2.92,2.92,0,0,0-3.16-1.82h0a2.94,2.94,0,0,1-3.33-2.47,3.1,3.1,0,0,1,0-.86h0a2.9,2.9,0,0,0-1.82-3.15h0a2.94,2.94,0,0,1-1.22-4.55h0a2.92,2.92,0,0,0,0-3.64h0a2.93,2.93,0,0,1,.46-4.11,2.86,2.86,0,0,1,.76-.43h0a2.92,2.92,0,0,0,1.82-3.16h0a2.93,2.93,0,0,1,2.46-3.33,2.82,2.82,0,0,1,.87,0h0A3,3,0,0,0,179.29,212.21Z"/><path d="M17,192h0a2.94,2.94,0,0,1-1.22-4.55h0a2.92,2.92,0,0,0,0-3.64h0a2.93,2.93,0,0,1,.46-4.11,2.86,2.86,0,0,1,.76-.43h0a2.94,2.94,0,0,0,1.82-3.16h0a2.92,2.92,0,0,1,2.47-3.33,2.48,2.48,0,0,1,.86,0h0A2.91,2.91,0,0,0,25.33,171h0a2.94,2.94,0,0,1,3.81-1.65,3.08,3.08,0,0,1,.74.44h0a2.94,2.94,0,0,0,3.64,0h0a2.92,2.92,0,0,1,4.11.45,2.71,2.71,0,0,1,.43.76h0a2.93,2.93,0,0,0,3.16,1.82h0a2.94,2.94,0,0,1,3.33,3.33h0a2.94,2.94,0,0,0,1.82,3.16h0A2.92,2.92,0,0,1,48,183.1a3.2,3.2,0,0,1-.44.76h0a2.92,2.92,0,0,0,0,3.64h0a2.93,2.93,0,0,1-.52,4.11,3.44,3.44,0,0,1-.7.4h0a2.9,2.9,0,0,0-1.82,3.15h0a2.93,2.93,0,0,1-2.46,3.33,3.17,3.17,0,0,1-.87,0h0a2.92,2.92,0,0,0-3.16,1.82h0A2.91,2.91,0,0,1,34.28,202a2.86,2.86,0,0,1-.76-.43h0a2.92,2.92,0,0,0-3.64,0h0a2.93,2.93,0,0,1-4.11-.47,2.84,2.84,0,0,1-.44-.75h0a2.9,2.9,0,0,0-3.15-1.82h0A2.94,2.94,0,0,1,18.85,196a3.1,3.1,0,0,1,0-.86h0A2.91,2.91,0,0,0,17,192Z"/><path d="M212.23,79.3h0a2.94,2.94,0,0,1-1.64-3.81,2.87,2.87,0,0,1,.43-.74h0a2.94,2.94,0,0,0,0-3.64h0a2.93,2.93,0,0,1,.46-4.11,2.81,2.81,0,0,1,.75-.43h0a2.94,2.94,0,0,0,1.83-3.16h0a2.92,2.92,0,0,1,2.45-3.33,2.54,2.54,0,0,1,.87,0h0a2.93,2.93,0,0,0,3.16-1.82h0a2.92,2.92,0,0,1,3.77-1.69,2.57,2.57,0,0,1,.77.44h0a2.94,2.94,0,0,0,3.64,0h0a2.93,2.93,0,0,1,4.12.46,2.81,2.81,0,0,1,.43.75h0A2.91,2.91,0,0,0,236.42,60h0a2.93,2.93,0,0,1,3.33,2.46,3.17,3.17,0,0,1,0,.87h0a2.94,2.94,0,0,0,1.82,3.16h0a2.92,2.92,0,0,1,1.66,3.78,3.2,3.2,0,0,1-.44.76h0a2.92,2.92,0,0,0,0,3.64h0a2.92,2.92,0,0,1-.47,4.11,3,3,0,0,1-.75.44h0a2.92,2.92,0,0,0-1.82,3.15h0a2.93,2.93,0,0,1-2.46,3.33,3.17,3.17,0,0,1-.87,0h0a2.91,2.91,0,0,0-3.15,1.82h0a2.93,2.93,0,0,1-3.8,1.65,3.11,3.11,0,0,1-.75-.43h0a2.92,2.92,0,0,0-3.64,0h0a2.92,2.92,0,0,1-4.1-.47,3.14,3.14,0,0,1-.44-.75h0a2.92,2.92,0,0,0-3.16-1.82h0a2.92,2.92,0,0,1-3.32-2.46,3.17,3.17,0,0,1,0-.87h0A2.91,2.91,0,0,0,212.23,79.3Z"/><path d="M18.89,63.45h0a2.92,2.92,0,0,1,2.45-3.33,2.54,2.54,0,0,1,.87,0h0a2.94,2.94,0,0,0,3.16-1.82h0a2.91,2.91,0,0,1,3.78-1.66,2.74,2.74,0,0,1,.76.44h0a2.93,2.93,0,0,0,3.65,0h0a2.92,2.92,0,0,1,4.11.46,2.71,2.71,0,0,1,.43.76h0a2.93,2.93,0,0,0,3.15,1.82h0a2.93,2.93,0,0,1,3.33,2.46,3.17,3.17,0,0,1,0,.87h0A2.94,2.94,0,0,0,46.4,66.6h0a2.92,2.92,0,0,1,1.69,3.78,2.86,2.86,0,0,1-.43.76h0a2.93,2.93,0,0,0,0,3.65h0a2.91,2.91,0,0,1-.46,4.1,3.2,3.2,0,0,1-.76.44h0a2.94,2.94,0,0,0-1.82,3.16h0a2.92,2.92,0,0,1-2.45,3.32,3.24,3.24,0,0,1-.88,0h0a2.92,2.92,0,0,0-3.15,1.82h0a2.91,2.91,0,0,1-3.78,1.65,2.86,2.86,0,0,1-.76-.43h0a2.93,2.93,0,0,0-3.65,0h0a2.92,2.92,0,0,1-4.1-.47,3.14,3.14,0,0,1-.44-.75h0a2.93,2.93,0,0,0-3.16-1.82h0a2.94,2.94,0,0,1-3.32-2.46,3.1,3.1,0,0,1,0-.86h0a2.93,2.93,0,0,0-1.82-3.16h0a2.93,2.93,0,0,1-1.65-3.79,2.66,2.66,0,0,1,.43-.75h0a2.93,2.93,0,0,0,0-3.65h0A2.93,2.93,0,0,1,16.35,67a2.86,2.86,0,0,1,.76-.43h0A2.93,2.93,0,0,0,18.89,63.45Z"/><path d="M214.09,176.15h0a2.92,2.92,0,0,1,2.47-3.33,2.48,2.48,0,0,1,.86,0h0a2.93,2.93,0,0,0,3.15-1.82h0a2.93,2.93,0,0,1,3.8-1.66,2.84,2.84,0,0,1,.75.44h0a2.94,2.94,0,0,0,3.64,0h0a2.92,2.92,0,0,1,4.11.46,2.71,2.71,0,0,1,.43.76h0a2.94,2.94,0,0,0,3.16,1.82h0a2.91,2.91,0,0,1,3.32,2.45,2.6,2.6,0,0,1,0,.88h0a2.94,2.94,0,0,0,1.83,3.15h0a2.91,2.91,0,0,1,1.65,3.78,3.2,3.2,0,0,1-.44.76h0a2.93,2.93,0,0,0,0,3.65h0a2.92,2.92,0,0,1-.45,4.1,3.4,3.4,0,0,1-.71.42h0a2.94,2.94,0,0,0-1.83,3.16h0a2.92,2.92,0,0,1-2.45,3.32,3.17,3.17,0,0,1-.87,0h0a2.94,2.94,0,0,0-3.16,1.82h0a2.91,2.91,0,0,1-3.78,1.65,2.86,2.86,0,0,1-.76-.43h0a2.92,2.92,0,0,0-3.64,0h0a2.93,2.93,0,0,1-4.11-.47,2.84,2.84,0,0,1-.44-.75h0a2.92,2.92,0,0,0-3.15-1.82h0a2.93,2.93,0,0,1-3.33-2.45,3.17,3.17,0,0,1,0-.87h0a2.93,2.93,0,0,0-1.82-3.16h0a2.93,2.93,0,0,1-1.65-3.79,2.66,2.66,0,0,1,.43-.75h0a2.93,2.93,0,0,0,0-3.65h0a2.94,2.94,0,0,1,.49-4.12,2.66,2.66,0,0,1,.73-.42h0A2.93,2.93,0,0,0,214.09,176.15Z"/><path d="M63.47,239.76h0a2.93,2.93,0,0,1-3.33-2.45,3.17,3.17,0,0,1,0-.87h0a2.93,2.93,0,0,0-1.82-3.16h0a2.93,2.93,0,0,1-1.65-3.79,2.66,2.66,0,0,1,.43-.75h0a2.92,2.92,0,0,0,0-3.64h0a2.94,2.94,0,0,1,.47-4.12,2.81,2.81,0,0,1,.75-.43h0a2.92,2.92,0,0,0,1.82-3.15h0a2.92,2.92,0,0,1,2.47-3.33,2.48,2.48,0,0,1,.86,0h0a2.93,2.93,0,0,0,3.15-1.82h0a2.93,2.93,0,0,1,3.8-1.67,2.75,2.75,0,0,1,.74.43h0a2.93,2.93,0,0,0,3.65,0h0a2.92,2.92,0,0,1,4.11.46,2.71,2.71,0,0,1,.43.76h0a2.94,2.94,0,0,0,3.16,1.82h0a2.91,2.91,0,0,1,3.32,2.45,2.6,2.6,0,0,1,0,.88h0a2.94,2.94,0,0,0,1.82,3.15h0a2.93,2.93,0,0,1,1.66,3.8,3.14,3.14,0,0,1-.44.75h0a2.92,2.92,0,0,0,0,3.64h0a2.91,2.91,0,0,1-.46,4.1,3.2,3.2,0,0,1-.76.44h0a2.94,2.94,0,0,0-1.82,3.16h0a2.92,2.92,0,0,1-2.45,3.32,3.17,3.17,0,0,1-.87,0h0a2.94,2.94,0,0,0-3.16,1.83h0a2.92,2.92,0,0,1-3.79,1.64,3.11,3.11,0,0,1-.75-.43h0a2.93,2.93,0,0,0-3.65,0h0a2.92,2.92,0,0,1-4.1-.46,3.14,3.14,0,0,1-.44-.75h0A2.93,2.93,0,0,0,63.47,239.76Z"/><path d="M176.17,44.56h0a2.93,2.93,0,0,1-3.33-2.45,3.17,3.17,0,0,1,0-.87h0A2.93,2.93,0,0,0,171,38.08h0a2.93,2.93,0,0,1-1.65-3.79,2.66,2.66,0,0,1,.43-.75h0a2.93,2.93,0,0,0,0-3.65h0a2.93,2.93,0,0,1,.46-4.11,2.86,2.86,0,0,1,.76-.43h0a2.94,2.94,0,0,0,1.82-3.16h0a2.93,2.93,0,0,1,2.46-3.33,2.82,2.82,0,0,1,.87,0h0A2.92,2.92,0,0,0,179.32,17h0a2.91,2.91,0,0,1,3.78-1.66,2.74,2.74,0,0,1,.76.44h0a2.93,2.93,0,0,0,3.65,0h0a2.92,2.92,0,0,1,4.11.46,2.71,2.71,0,0,1,.43.76h0a3,3,0,0,0,3.16,1.82h0a2.92,2.92,0,0,1,3.32,2.45,3.17,3.17,0,0,1,0,.87h0a3,3,0,0,0,1.82,3.16h0A2.92,2.92,0,0,1,202,29.09a3.2,3.2,0,0,1-.44.76h0a2.93,2.93,0,0,0,0,3.65h0a2.91,2.91,0,0,1-.46,4.1,3.2,3.2,0,0,1-.76.44h0a2.94,2.94,0,0,0-1.82,3.16h0a2.92,2.92,0,0,1-2.45,3.32,3.17,3.17,0,0,1-.87,0h0a2.94,2.94,0,0,0-3.16,1.82h0A2.91,2.91,0,0,1,188.27,48a2.86,2.86,0,0,1-.76-.43h0a2.93,2.93,0,0,0-3.65,0h0a2.92,2.92,0,0,1-4.1-.47,3.14,3.14,0,0,1-.44-.75h0A2.91,2.91,0,0,0,176.17,44.56Z"/><path d="M67.66,91.62h0a2.92,2.92,0,0,1,2.47-3.33,2.43,2.43,0,0,1,.85,0h0a2.93,2.93,0,0,0,3.16-1.82h0a2.93,2.93,0,0,1,3.79-1.65,2.84,2.84,0,0,1,.75.44h0a3,3,0,0,0,3.65,0h0a2.92,2.92,0,0,1,4.11.45,2.71,2.71,0,0,1,.43.76h0A2.93,2.93,0,0,0,90,88.29h0a2.92,2.92,0,0,1,3.32,2.47,3.1,3.1,0,0,1,0,.86h0a3,3,0,0,0,1.82,3.16h0a2.92,2.92,0,0,1,1.66,3.78,3.2,3.2,0,0,1-.44.76h0a2.92,2.92,0,0,0,0,3.64h0a2.92,2.92,0,0,1-.47,4.11,3,3,0,0,1-.75.44h0a2.93,2.93,0,0,0-1.82,3.15h0A2.92,2.92,0,0,1,90.93,114a3.17,3.17,0,0,1-.87,0h0a2.92,2.92,0,0,0-3.16,1.82h0a2.92,2.92,0,0,1-3.8,1.61,3,3,0,0,1-.74-.43h0a2.93,2.93,0,0,0-3.65,0h0a2.92,2.92,0,0,1-4.1-.47,3.14,3.14,0,0,1-.44-.75h0A2.92,2.92,0,0,0,71,114h0a2.92,2.92,0,0,1-3.32-2.46,3.17,3.17,0,0,1,0-.87h0a2.92,2.92,0,0,0-1.82-3.15h0a2.93,2.93,0,0,1-1.58-3.83,2.61,2.61,0,0,1,.37-.65h0a2.92,2.92,0,0,0,0-3.64h0a2.93,2.93,0,0,1,.46-4.11,2.86,2.86,0,0,1,.76-.43h0A3,3,0,0,0,67.66,91.62Z"/><path d="M165.29,148h0a2.92,2.92,0,0,1,2.47-3.33,2.48,2.48,0,0,1,.86,0h0a2.92,2.92,0,0,0,3.15-1.82h0a2.93,2.93,0,0,1,3.79-1.65,2.84,2.84,0,0,1,.75.44h0a3,3,0,0,0,3.65,0h0a2.92,2.92,0,0,1,4.11.45,2.71,2.71,0,0,1,.43.76h0a2.93,2.93,0,0,0,3.16,1.82h0a2.92,2.92,0,0,1,3.32,2.47,3.1,3.1,0,0,1,0,.86h0a3,3,0,0,0,1.82,3.16h0a2.92,2.92,0,0,1,1.66,3.78,3.2,3.2,0,0,1-.44.76h0a2.92,2.92,0,0,0,0,3.64h0a2.92,2.92,0,0,1-.47,4.11,3,3,0,0,1-.75.44h0a2.93,2.93,0,0,0-1.82,3.15h0a2.94,2.94,0,0,1-3.32,3.33h0a2.92,2.92,0,0,0-3.16,1.82h0a2.91,2.91,0,0,1-3.78,1.65,2.86,2.86,0,0,1-.76-.43h0a2.93,2.93,0,0,0-3.65,0h0a2.93,2.93,0,0,1-4.11-.49,3,3,0,0,1-.43-.73h0a2.9,2.9,0,0,0-3.15-1.82h0a2.94,2.94,0,0,1-3.33-2.47,3.1,3.1,0,0,1,0-.86h0a2.91,2.91,0,0,0-1.82-3.15h0a2.94,2.94,0,0,1-1.22-4.55h0a2.92,2.92,0,0,0,0-3.64h0a2.93,2.93,0,0,1,.46-4.11,2.86,2.86,0,0,1,.76-.43h0A2.94,2.94,0,0,0,165.29,148Z"/><path d="M66,163.86h0a2.94,2.94,0,0,1-1.64-3.81,2.87,2.87,0,0,1,.43-.74h0a2.94,2.94,0,0,0,0-3.64h0a2.93,2.93,0,0,1,.46-4.11,2.81,2.81,0,0,1,.75-.43h0A2.92,2.92,0,0,0,67.78,148h0a2.94,2.94,0,0,1,3.33-3.33h0a2.93,2.93,0,0,0,3.16-1.82h0a2.93,2.93,0,0,1,3.79-1.65,2.84,2.84,0,0,1,.75.44h0a2.94,2.94,0,0,0,3.64,0h0a2.93,2.93,0,0,1,4.12.46,2.81,2.81,0,0,1,.43.75h0a2.91,2.91,0,0,0,3.15,1.82h0a2.93,2.93,0,0,1,3.33,2.46,3.17,3.17,0,0,1,0,.87h0a2.94,2.94,0,0,0,1.82,3.16h0A2.92,2.92,0,0,1,97,154.91a3.2,3.2,0,0,1-.44.76h0a2.92,2.92,0,0,0,0,3.64h0a2.92,2.92,0,0,1-.47,4.11,3,3,0,0,1-.75.44h0A2.92,2.92,0,0,0,93.48,167h0A2.93,2.93,0,0,1,91,170.34a3.17,3.17,0,0,1-.87,0h0A2.91,2.91,0,0,0,87,172.16h0a2.93,2.93,0,0,1-3.8,1.65,3.11,3.11,0,0,1-.75-.43h0a2.92,2.92,0,0,0-3.64,0h0a2.92,2.92,0,0,1-4.1-.47,3.14,3.14,0,0,1-.44-.75h0a2.92,2.92,0,0,0-3.16-1.82h0a2.94,2.94,0,0,1-3.33-2.47,3.1,3.1,0,0,1,0-.86h0A2.9,2.9,0,0,0,66,163.86Z"/><path d="M163.56,107.51h0a2.94,2.94,0,0,1-1.64-3.81,2.87,2.87,0,0,1,.43-.74h0a2.94,2.94,0,0,0,0-3.64h0a2.93,2.93,0,0,1,.46-4.11,2.81,2.81,0,0,1,.75-.43h0a2.94,2.94,0,0,0,1.83-3.16h0a2.92,2.92,0,0,1,2.45-3.33,2.54,2.54,0,0,1,.87,0h0a2.93,2.93,0,0,0,3.16-1.82h0a2.93,2.93,0,0,1,3.79-1.65,2.84,2.84,0,0,1,.75.44h0a2.94,2.94,0,0,0,3.64,0h0a2.93,2.93,0,0,1,4.12.46,2.81,2.81,0,0,1,.43.75h0a2.93,2.93,0,0,0,3.15,1.82h0a2.93,2.93,0,0,1,3.33,2.46,3.17,3.17,0,0,1,0,.87h0a2.94,2.94,0,0,0,1.82,3.16h0a2.92,2.92,0,0,1,1.66,3.78,3.2,3.2,0,0,1-.44.76h0a2.92,2.92,0,0,0,0,3.64h0a2.92,2.92,0,0,1-.47,4.11,3,3,0,0,1-.75.44h0a2.92,2.92,0,0,0-1.82,3.15h0a2.93,2.93,0,0,1-2.46,3.33,3.17,3.17,0,0,1-.87,0h0a2.91,2.91,0,0,0-3.15,1.82h0a2.93,2.93,0,0,1-3.8,1.65,3.11,3.11,0,0,1-.75-.43h0a2.92,2.92,0,0,0-3.64,0h0a2.92,2.92,0,0,1-4.1-.47,3.14,3.14,0,0,1-.44-.75h0a2.92,2.92,0,0,0-3.16-1.82h0a2.92,2.92,0,0,1-3.32-2.46,3.17,3.17,0,0,1,0-.87h0A2.92,2.92,0,0,0,163.56,107.51Z"/></g></g></g></g></svg>
